<?xml version="1.0" encoding="UTF-8" standalone="no"?>
<!-- Created with Inkscape (http://www.inkscape.org/) -->

<svg
   xmlns:dc="http://purl.org/dc/elements/1.1/"
   xmlns:cc="http://creativecommons.org/ns#"
   xmlns:rdf="http://www.w3.org/1999/02/22-rdf-syntax-ns#"
   xmlns:svg="http://www.w3.org/2000/svg"
   xmlns="http://www.w3.org/2000/svg"
   xmlns:xlink="http://www.w3.org/1999/xlink"
   xmlns:sodipodi="http://sodipodi.sourceforge.net/DTD/sodipodi-0.dtd"
   xmlns:inkscape="http://www.inkscape.org/namespaces/inkscape"
   id="svg1"
   sodipodi:docname="Arrow-Down-Cyan.svg"
   viewBox="0 0 676.2182 676.21822"
   sodipodi:version="0.32"
   version="1.1"
   inkscape:version="0.92.3 (unknown)"
   width="676.2182"
   height="676.2182">
  <defs
     id="defs3">
    <linearGradient
       id="linearGradient1683">
      <stop
         id="stop1684"
         style="stop-color:#0cdbb7"
         offset="0" />
      <stop
         id="stop1685"
         style="stop-color:#067662"
         offset="1" />
    </linearGradient>
    <linearGradient
       id="linearGradient1744"
       y2="269.54999"
       gradientUnits="userSpaceOnUse"
       y1="269.54999"
       gradientTransform="matrix(0,-1.4755,0.67775,0,0,0)"
       x2="112.89"
       x1="-175.31"
       inkscape:collect="always">
      <stop
         id="stop1695"
         style="stop-color:#ffffff;stop-opacity:0"
         offset="0" />
      <stop
         id="stop1696"
         style="stop-color:#ffffff"
         offset="1" />
    </linearGradient>
    <linearGradient
       id="linearGradient1745"
       y2="-435.87"
       xlink:href="#linearGradient1683"
       gradientUnits="userSpaceOnUse"
       y1="-435.87"
       gradientTransform="matrix(0,1.4755,-0.67775,0,0,0)"
       x2="313.85001"
       x1="-97.307999"
       inkscape:collect="always" />
    <linearGradient
       id="linearGradient1746"
       y2="-418.63"
       xlink:href="#linearGradient1683"
       gradientUnits="userSpaceOnUse"
       y1="-418.63"
       gradientTransform="matrix(0,1.4755,-0.67775,0,0,0)"
       x2="-90.249001"
       x1="309.53"
       inkscape:collect="always" />
  </defs>
  <sodipodi:namedview
     id="base"
     bordercolor="#666666"
     inkscape:pageshadow="2"
     inkscape:window-y="36"
     pagecolor="#ffffff"
     inkscape:window-maximized="1"
     inkscape:grid-bbox="false"
     inkscape:window-width="1854"
     inkscape:zoom="0.43415836"
     inkscape:window-x="66"
     showgrid="false"
     borderopacity="1.0"
     inkscape:current-layer="layer1"
     inkscape:cx="477.07461"
     inkscape:cy="395.25326"
     inkscape:window-height="1020"
     inkscape:pageopacity="0.0"
     fit-margin-top="0"
     fit-margin-left="0"
     fit-margin-right="0"
     fit-margin-bottom="0" />
  <g
     id="layer1"
     inkscape:label="Layer 1"
     inkscape:groupmode="layer"
     transform="translate(170.02385,33.594391)">
    <g
       id="g869"
       transform="translate(26.785457,50.360271)">
      <g
         transform="rotate(-90,158.24499,323.5556)"
         id="g853">
        <g
           id="g1752">
          <path
             id="path1061"
             inkscape:connector-curvature="0"
             style="fill:url(#linearGradient1745);fill-rule:evenodd;stroke:url(#linearGradient1746);stroke-width:8.75;stroke-linejoin:round"
             transform="rotate(180,240,241.65)"
             d="M 323,-148.99 180.02,25.58 250.89,25.577 v 442.91 H 392.62 V 25.577 L 463.49,25.571 323,-148.999 Z" />
          <path
             id="path1083"
             inkscape:connector-curvature="0"
             sodipodi:nodetypes="cccccccc"
             style="fill:url(#linearGradient1744);fill-rule:evenodd"
             d="M 156.86,607 272.94,465.27 H 215.4 V 27.96 H 100.33 V 465.27 H 42.792 L 156.862,607 Z" />
        </g>
      </g>
      <g
         transform="matrix(17.648258,0,0,17.648258,-163.03348,-49.821559)"
         id="layer1-6"
         inkscape:label="Calque 1">
        <rect
           id="rect3465"
           style="fill:#427bc3"
           ry="0"
           height="0"
           width="5.7059999"
           y="13.76"
           x="14.781" />
        <g
           id="g2576"
           transform="translate(0.10372,-0.066886)">
          <path
             inkscape:connector-curvature="0"
             id="rect2422"
             sodipodi:nodetypes="csccccccccssccsccssc"
             style="fill:#888a85"
             d="m 23.781,0.125 c -1.633,0.01412 -3.249,0.65542 -4.5,1.9062 -1.885,1.8849 -2.328,4.6154 -1.406,6.9376 -0.071,0.0563 -0.184,0.1215 -0.25,0.1874 l -4.031,4.0318 c -0.901,0.9 -0.901,2.38 0,3.281 l 0.375,0.375 c 0.9,0.9 2.38,0.9 3.281,0 l 4.062,-4.032 c 0.066,-0.065 0.1,-0.178 0.157,-0.25 2.322,0.923 5.052,0.479 6.937,-1.406 0.255,-0.254 0.49,-0.529 0.688,-0.812 0.066,-0.095 0.127,-0.184 0.187,-0.282 C 30.032,8.4798 29.637,8.574 28,9 26.344,9 25,7.656 25,6 25,4.344 26.344,3 28,3 29,3 27.406,1.1013 26.188,0.5938 26.13,0.57122 26.089,0.52081 26.031,0.5 26.01,0.49362 25.99,0.50617 25.969,0.5 25.267,0.25648 24.516,0.11865 23.781,0.125 Z" />
          <path
             inkscape:connector-curvature="0"
             id="path2568"
             style="fill:#babdb6"
             transform="translate(0.013335,-0.23104)"
             d="m 23.812,1.1875 c -1.404,0.0121 -2.788,0.5386 -3.874,1.625 -1.629,1.6288 -1.985,3.9618 -1.188,5.9687 0.144,0.3682 0.03,0.7874 -0.281,1.0313 -0.167,0.1313 -0.273,0.2105 -0.188,0.125 L 14.25,13.969 c -0.554,0.554 -0.554,1.477 0,2.031 l 0.375,0.375 c 0.554,0.554 1.477,0.554 2.031,0 l 4.063,-4.031 c -0.186,0.185 -0.137,0.105 0.093,-0.188 0.244,-0.311 0.664,-0.425 1.032,-0.281 2.007,0.797 4.34,0.441 5.968,-1.187 0.222,-0.222 0.402,-0.456 0.563,-0.688 -0.051,0.013 -0.07,0.017 -0.125,0.031 -0.071,0.02 -0.145,0.03 -0.219,0.031 -2.14,0 -3.906,-1.7654 -3.906,-3.9058 0,-1.7615 1.23,-3.2115 2.844,-3.6874 C 26.614,2.1095 26.172,1.6861 25.875,1.5625 25.702,1.4947 25.829,1.5448 25.812,1.5312 25.78,1.5255 25.786,1.5416 25.75,1.5312 V 1.5 c -0.01,2e-4 -0.021,2e-4 -0.031,0 C 25.105,1.287 24.43,1.1822 23.812,1.1875 Z" />
          <path
             inkscape:connector-curvature="0"
             id="path2432"
             style="fill:#204a87"
             transform="matrix(0.77321,-0.77321,0.77321,0.77321,-10.831,19.336)"
             d="M 4.5312,10.5 C 3.4188,10.5 2.5,11.419 2.5,12.531 v 2.938 c 0,1.112 0.9188,2.031 2.0312,2.031 h 15.938 c 1.112,0 2.031,-0.919 2.031,-2.031 v -2.938 c 0,-1.112 -0.919,-2.031 -2.031,-2.031 z" />
          <path
             inkscape:connector-curvature="0"
             id="path2506"
             style="fill:#729fcf"
             transform="matrix(0.67246,-0.67246,0.67246,0.67246,-0.43451,1.8728)"
             d="m -15.5,18.156 c -0.848,0 -1.531,0.684 -1.531,1.532 v 3.343 c 0,0.848 0.683,1.531 1.531,1.531 H 2.812 c 0.8485,0 1.5318,-0.683 1.5318,-1.531 v -3.343 c 0,-0.848 -0.6833,-1.532 -1.5313,-1.532 h -18.312 z" />
          <path
             inkscape:connector-curvature="0"
             id="rect2438"
             style="fill:#3465a4"
             transform="rotate(-45)"
             d="m -15.318,19.136 c 0.303,0 0.547,0.244 0.547,0.546 v 3.281 c 0,0.303 -0.244,0.547 -0.547,0.547 -0.303,0 -0.546,-0.244 -0.546,-0.547 v -3.281 c 0,-0.302 0.243,-0.546 0.546,-0.546 z" />
          <path
             inkscape:connector-curvature="0"
             id="rect2440"
             style="fill:#3465a4"
             transform="rotate(-45)"
             d="m -12.037,19.136 c 0.303,0 0.547,0.244 0.547,0.546 v 3.281 c 0,0.303 -0.244,0.547 -0.547,0.547 -0.303,0 -0.547,-0.244 -0.547,-0.547 v -3.281 c 0,-0.302 0.244,-0.546 0.547,-0.546 z" />
          <path
             inkscape:connector-curvature="0"
             id="rect2442"
             style="fill:#3465a4"
             transform="rotate(-45)"
             d="m -8.7567,19.136 c 0.3029,0 0.5468,0.244 0.5468,0.546 v 3.281 c 0,0.303 -0.2439,0.547 -0.5468,0.547 -0.3029,0 -0.5467,-0.244 -0.5467,-0.547 v -3.281 c 0,-0.302 0.2438,-0.546 0.5467,-0.546 z" />
        </g>
      </g>
    </g>
  </g>
  <metadata
     id="metadata17">
    <rdf:RDF>
      <cc:Work>
        <dc:format>image/svg+xml</dc:format>
        <dc:type
           rdf:resource="http://purl.org/dc/dcmitype/StillImage" />
        <cc:license
           rdf:resource="http://creativecommons.org/publicdomain/zero/1.0/" />
        <dc:publisher>
          <cc:Agent
             rdf:about="http://openclipart.org/">
            <dc:title>Openclipart</dc:title>
          </cc:Agent>
        </dc:publisher>
        <dc:title></dc:title>
      </cc:Work>
      <cc:License
         rdf:about="http://creativecommons.org/publicdomain/zero/1.0/">
        <cc:permits
           rdf:resource="http://creativecommons.org/ns#Reproduction" />
        <cc:permits
           rdf:resource="http://creativecommons.org/ns#Distribution" />
        <cc:permits
           rdf:resource="http://creativecommons.org/ns#DerivativeWorks" />
      </cc:License>
    </rdf:RDF>
  </metadata>
</svg>
